<?xml version="1.0" encoding="utf-8"?>
<!-- Generator: Adobe Illustrator 22.0.1, SVG Export Plug-In . SVG Version: 6.00 Build 0)  -->
<svg version="1.1" id="Capa_1" xmlns="http://www.w3.org/2000/svg" xmlns:xlink="http://www.w3.org/1999/xlink" x="0px" y="0px"
	 viewBox="0 0 1920 1080" style="enable-background:new 0 0 1920 1080;" xml:space="preserve">
<style type="text/css">
	.st0{fill:#FFFFFF;}
	.st1{fill:#FFFFFF;stroke:#FFFFFF;stroke-width:27.3309;stroke-miterlimit:10;}
</style>
<g>
	<g>
		<path class="st0" d="M21,490.5l606-312.1v90.1l-510.6,256v2.6L627,783v90.1L21,561V490.5z"/>
	</g>
	<g>
		<path class="st0" d="M1898,562.5l-606,312.1v-90.1l510.6-256v-2.6l-510.6-256v-90.1l606,312.1V562.5z"/>
	</g>
	<g>
		<path class="st1" d="M1086.6,774c-45.5,24-91.9,33.1-147.3,33.1c-135.7,0-250.8-99.3-250.8-258.2c0-170.5,118.3-317.8,302.1-317.8
			c144,0,240.8,101,240.8,239.2c0,124.1-69.5,197-147.3,197c-33.1,0-63.7-22.3-61.2-72.8h-3.3c-29,48.8-67,72.8-116.7,72.8
			c-48,0-89.4-38.9-89.4-104.3c0-102.6,81.1-196.1,196.1-196.1c35.6,0,67,7.4,88.5,17.4L1070.1,534c-12.4,62.9-2.5,91.9,24.8,92.7
			c42.2,0.8,89.4-55.4,89.4-151.4c0-120-72-206.1-200.3-206.1C849.1,269.2,735.7,376,735.7,544c0,138.2,90.2,223.4,212.7,223.4
			c47.2,0,91-9.9,125-29L1086.6,774z M1041.1,416.5c-8.3-2.5-22.3-5.8-41.4-5.8c-72.8,0-131.6,68.7-131.6,149
			c0,36.4,18.2,62.9,54.6,62.9c48,0,91.9-61.2,101-112.5L1041.1,416.5z"/>
	</g>
</g>
</svg>
